<?xml version="1.0" ?><!DOCTYPE svg  PUBLIC '-//W3C//DTD SVG 1.1//EN'  'http://www.w3.org/Graphics/SVG/1.1/DTD/svg11.dtd'><svg enable-background="new 0 0 48 48" height="48px" id="Layer_3" version="1.1" viewBox="0 0 48 48" width="48px" xml:space="preserve" xmlns="http://www.w3.org/2000/svg" xmlns:xlink="http://www.w3.org/1999/xlink"><circle cx="24" cy="17" fill="#241F20" r="6"/><path d="M24,0C10.745,0,0,10.745,0,24s10.745,24,24,24s24-10.745,24-24S37.255,0,24,0z M35.812,40.113v-3.301  C35.812,30.289,30.523,25,24,25c-6.524,0-11.812,5.289-11.812,11.812v3.301C7.231,36.473,4,30.621,4,24C4,12.954,12.954,4,24,4  s20,8.954,20,20C44,30.621,40.769,36.473,35.812,40.113z" fill="#241F20"/></svg>